<!DOCTYPE svg PUBLIC "-//W3C//DTD SVG 20010904//EN" "http://www.w3.org/TR/2001/REC-SVG-20010904/DTD/svg10.dtd">
<svg version="1.0" xmlns="http://www.w3.org/2000/svg" viewBox="0 0 900 900" preserveAspectRatio="xMidYMid meet">
    <g>
        <path d="M321 876 l-23 -24 25 -79 24 -78 -69 -71 -70 -71 -80 24 -80 25 -24 -23 c-40 -38 -32 -68 58 -222 45 -75 43 -74 170 -80 l87 -3 98 -95 c54 -53 120 -108 146 -123 55 -32 163 -56 255 -56 l62 0 0 68 c-1 163 -43 255 -178 394 l-97 100 -3 104 -4 105 -42 26 c-88 56 -182 103 -207 103 -14 0 -35 -11 -48 -24z m434 -687 c9 -28 -16 -53 -44 -44 -15 4 -21 15 -21 36 0 25 4 29 29 29 21 0 32 -6 36 -21z"/>
    </g>

</svg>
